{"title":"Fear The Walking Dead S01E04 Not Fade Away 1080P WEB-DL.DD5.1.H.","uid":12476398,"size":1978142437,"categoryP":"video","categoryS":"hd___tv_shows","magnet":"?xt=urn:btih:a6f188e158afefbd9ea9da65fad201afe8496166&amp;dn=Fear+The+Walking+Dead+S01E04+Not+Fade+Away+1080P+WEB-DL.DD5.1.H.&amp;tr=udp%3A%2F%2Ftracker.openbittorrent.com%3A80&amp;tr=udp%3A%2F%2Fopen.demonii.com%3A1337&amp;tr=udp%3A%2F%2Ftracker.coppersurfer.tk%3A6969&amp;tr=udp%3A%2F%2Fexodus.desync.com%3A6969","seeders":0,"leechers":3,"uploader":"jmanwf","files":2,"time":1442989293,"description":"Madison and Travis witness different sides of the National Guard's occupation of their neighborhood as our family tries to adapt to the new world.\n\n\n\nVideo\nID                                       : 2\nFormat                                   : AVC\nFormat/Info                              : Advanced Video Codec\nFormat profile                           : High@L4\nFormat settings, CABAC                   : Yes\nFormat settings, ReFrames                : 4 frames\nCodec ID                                 : avc1\nCodec ID/Info                            : Advanced Video Coding\nDuration                                 : 46mn 29s\nBit rate                                 : 5 160 Kbps\nWidth                                    : 1 920 pixels\nHeight                                   : 1 080 pixels\nDisplay aspect ratio                     : 16:9\nFrame rate mode                          : Constant\nFrame rate                               : 23.976 fps\nColor space                              : YUV\nChroma subsampling                       : 4:2:0\nBit depth                                : 8 bits\nScan type                                : Progressive\nBits/(Pixel*Frame)                       : 0.104\nStream size                              : 1.68 GiB (91%)\nLanguage                                 : English\nEncoded date                             : UTC 2015-09-21 13:21:59\nTagged date                              : UTC 2015-09-21 13:25:05\nColor range                              : Limited\nColor primaries                          : BT.709\nTransfer characteristics                 : BT.709\nMatrix coefficients                      : BT.709\n\nAudio #1\nID                                       : 1\nFormat                                   : AAC\nFormat/Info                              : Advanced Audio Codec\nFormat profile                           : LC\nCodec ID                                 : 40\nDuration                                 : 46mn 29s\nBit rate mode                            : Variable\nBit rate                                 : 125 Kbps\nMaximum bit rate                         : 208 Kbps\nChannel(s)                               : 2 channels\nChannel positions                        : Front: L R\nSampling rate                            : 48.0 KHz\nCompression mode                         : Lossy\nStream size                              : 41.4 MiB (2%)\nLanguage                                 : English\nEncoded date                             : UTC 2015-09-21 13:21:59\nTagged date                              : UTC 2015-09-21 13:25:05\n\nAudio #2\nID                                       : 3\nFormat                                   : AC-3\nFormat/Info                              : Audio Coding 3\nMode extension                           : CM (complete main)\nFormat settings, Endianness              : Big\nCodec ID                                 : ac-3\nDuration                                 : 46mn 29s\nBit rate mode                            : Constant\nBit rate                                 : 384 Kbps\nChannel(s)                               : 6 channels\nChannel positions                        : Front: L C R, Side: L R, LFE\nSampling rate                            : 48.0 KHz\nBit depth                                : 16 bits\nCompression mode                         : Lossy\nStream size                              : 128 MiB (7%)\nLanguage                                 : English\nEncoded date                             : UTC 2015-09-21 13:21:59\nTagged date                              : UTC 2015-09-21 13:25:05\n\nText\nID                                       : 4-CC1\nFormat                                   : EIA-608\nMuxing mode                              : Final Cut\nCodec ID                                 : c608\nDuration                                 : 46mn 0s\nBit rate mode                            : Constant\nStream size                              : 0.00 Byte (0%)\nLanguage                                 : English\nEncoded date                             : UTC 2015-09-21 13:21:59\nTagged date                              : UTC 2015-09-21 13:22:03","torrent":{"xt":"urn:btih:a6f188e158afefbd9ea9da65fad201afe8496166","amp;dn":"Fear+The+Walking+Dead+S01E04+Not+Fade+Away+1080P+WEB-DL.DD5.1.H.","amp;tr":["udp%3A%2F%2Ftracker.openbittorrent.com%3A80","udp%3A%2F%2Fopen.demonii.com%3A1337","udp%3A%2F%2Ftracker.coppersurfer.tk%3A6969","udp%3A%2F%2Fexodus.desync.com%3A6969"],"infoHash":"a6f188e158afefbd9ea9da65fad201afe8496166","infoHashBuffer":{"type":"Buffer","data":[166,241,136,225,88,175,239,189,158,169,218,101,250,210,1,175,232,73,97,102]},"announce":[],"urlList":[]}}